<svg width="289" height="577" viewBox="0 0 289 577" fill="none" xmlns="http://www.w3.org/2000/svg">
<path d="M118.18 62.6822C118.368 60.0167 118.28 56.7652 118.347 53.9509C118.851 32.5858 145.669 22.8285 160.633 37.3433C167.926 44.4186 167.935 52.669 167.87 62.5662C174.433 67.403 170.897 77.4552 165.933 82.165C165.349 82.7197 164.069 83.0305 163.287 83.2384C161.818 89.411 160.007 93.1429 160.53 99.7979C160.746 102.548 161.272 106.671 163.229 108.67C167.284 112.809 180.101 116.919 185.605 118.484C193.772 120.807 200.424 121.236 207.023 127.471C217.526 137.396 216.221 149.24 217.155 162.121C218.137 167.911 219.276 173.38 219.934 179.233C220.736 186.366 220.711 193.744 221.755 200.808C222.326 204.672 225.501 209.391 226.686 213.165C228.442 218.756 229.529 224.746 230.434 230.532C231.41 240.514 231.359 250.535 231.756 260.557C232.064 268.324 231.815 271.871 235.153 279.029C237.597 284.271 240.427 292.565 240.852 298.564C241.151 302.778 236.636 315.336 234.186 319.193C232.996 320.57 224.178 327.569 221.991 327.814C220.651 327.963 218.34 327.205 217.255 326.495C214.416 324.644 219.108 316.279 220.115 314.116C221.073 312.504 223.123 310.436 223.839 308.805C224.781 306.655 225.226 299.905 223.21 298.448C223.06 298.567 222.263 299.468 222.034 301.184C221.416 305.802 218.317 314.228 212.392 309.974C211.489 309.326 212.314 300.384 212.315 298.29C212.317 294.819 211.629 288.934 212.406 285.336C212.91 282.854 215.094 280.093 216.05 277.507C210.954 255.583 197.551 236.585 197.377 213.377C197.347 209.419 195.063 206.091 194.415 202.483C193.207 195.762 191.708 188.891 190.59 182.177C187.269 196.841 184.211 213.127 186.837 228.167C188.505 237.719 191.349 247.144 192.956 256.699C196.154 275.084 198.16 293.659 198.96 312.304C199.604 325.853 197.442 343.106 196.356 356.737C195.88 362.715 194.741 366.699 194.556 373.306C194.08 373.81 193.789 375.611 193.53 376.504C192.811 375.523 192.983 370.475 193.011 369.17L192.458 368.731C192.39 367.454 192.728 364.814 192.912 363.487C198.201 325.326 196.814 287.674 188.878 249.959C186.908 240.6 183.939 230.356 183.388 220.714C182.611 207.106 185.785 192.7 188.511 179.404C190.084 171.269 190.678 165.37 192.74 156.905C192.721 161.545 190.901 172.342 191.707 176.048C193.869 185.994 195.806 196.265 198.376 206.109C198.656 207.18 199.694 208.393 200.407 209.223C199.896 213.26 200.303 217.422 200.768 221.439C203.039 241.043 214.391 258.033 218.406 277.254C218.799 279.132 214.593 285.725 214.275 288.328C213.797 292.233 215.202 295.369 215.161 299.24C215.154 301.553 212.902 306.554 214.793 307.917C219.315 308.796 219.94 297.499 221.735 293.754C229.815 298.366 228.879 309.185 222.511 314.651C220.78 316.136 220.509 317.998 220.538 320.134L220.246 320.903C219.754 321.77 219.246 322.7 218.736 323.548C219.49 324.579 219.619 325.103 220.69 325.571C223.767 324.889 231.038 319.173 232.828 316.24C235.023 312.8 235.583 308.782 237.082 305.046C239.243 299.657 238.524 297.265 237.173 292.089C235.628 286.17 231.581 279.15 230.58 273.517C226.837 252.447 231.134 230.455 222.96 210.172C221.624 206.846 219.859 205.465 219.425 201.613L214.832 162.43C213.536 150.621 214.889 136.286 204.154 128.148C202.585 126.958 198.341 124.385 196.556 123.924C188.803 121.92 181.772 120.103 174.313 117.208C159.289 111.378 158.226 110.162 157.972 94.184C149.702 101.717 144.763 106.536 133.513 98.4484C131.892 97.2822 130.498 95.9048 128.96 94.6655C129.364 98.541 129.021 107.179 126.385 110.337C124.021 113.17 120.568 114.445 117.348 115.838C112.255 118.041 107.318 119.667 102.065 121.371C99.3185 122.263 96.0908 122.688 93.6402 123.501C88.8497 125.091 83.5624 128.344 80.1882 132.056C72.8632 140.113 74.3079 152.349 73.335 162.394C72.8894 166.993 71.4883 172.091 71.0275 177.188C70.2515 185.768 69.705 194.592 68.5138 203.117C68.057 206.388 65.4174 210.278 64.4935 213.118C63.1676 217.194 61.3764 224.696 61.021 228.882C60.0987 239.747 60.3249 250.946 59.7788 261.862C59.5934 265.561 59.5684 269.139 59.1067 272.845C58.7678 275.564 57.8084 276.908 57.0547 279.334C54.899 286.274 51.0485 293.532 51.6006 300.933C51.8499 304.275 53.4608 306.748 54.6168 309.763C55.4821 312.022 56.0167 314.459 57.149 316.584C57.7563 317.722 59.0734 319.139 60.0252 319.843C61.0007 320.567 68.34 325.805 69.0513 325.957C70.0895 325.791 69.7211 325.968 70.4895 325.329C70.692 324.726 71.0126 323.923 70.5805 323.3C68.413 320.179 62.8569 317.449 60.5032 314.321C58.3338 311.439 57.0842 307.013 56.1153 303.655L56.2198 303.804C58.0059 306.399 58.6794 308.61 59.9486 311.338C61.3914 314.437 66.4215 318.798 69.3318 320.548C67.9674 314.507 66.5184 314.69 63.6859 310.416C62.1919 308.163 61.8418 299.646 63.9605 297.685C64.9151 296.372 65.216 295.741 66.5798 295.056C70.3692 294.895 70.8174 304.37 71.9655 307.486C72.9466 307.875 74.2257 308.498 75.2318 308.427C75.7298 307.805 75.8346 307.374 75.6926 306.483C75.2707 303.838 75.0642 301.668 74.9352 299.014C74.7414 295.014 75.7946 289.486 74.5535 285.781C73.9381 283.941 71.8596 281.562 70.8979 279.289C72.8638 264.715 80.9476 249.184 85.1806 235.253C86.8358 229.483 87.3566 223.517 87.898 217.576C88.0151 216.292 88.1146 211.45 88.4376 210.578C91.5626 202.136 92.9326 193.367 94.6103 184.547C95.2162 181.361 96.3925 178.206 96.713 174.965C97.1274 168.775 95.2863 161.88 95.3393 155.799C97.3755 160.497 97.7135 170.203 98.8893 175.636C101.07 185.872 103.678 196.425 104.815 206.823C107.265 229.232 98.3927 250.085 96.7046 272.211C96.3066 277.429 95.0824 282.679 94.7199 288.137C93.3991 305.751 93.4875 323.444 94.9844 341.044C95.4874 346.372 96.5035 351.846 97.115 357.115C98.2003 366.468 99.1794 374.374 97.7006 383.742C97.0139 388.092 98.6442 395.028 97.5918 399.623C97.2248 402.263 95.9094 405.052 95.3875 407.613C93.1611 418.542 93.3977 431.598 94.8342 442.698C96.8037 455.785 98.1552 468.908 97.7989 482.167C97.7465 484.117 97.7924 491.075 96.964 492.185C93.3208 497.076 93.1808 506.351 90.2663 510.563C85.1153 518.01 77.7528 518.325 73.6781 527.104C74.7403 527.721 75.9112 528.521 77.1497 528.499L77.6438 528.485L77.7032 528.972C79.0401 530.088 80.6975 530.429 82.3957 530.544C82.8376 530.31 82.7565 530.437 83.0064 530.074L83.4647 530.133C84.4238 531.584 88.1582 531.925 89.6193 531.04C89.7705 530.95 90.0843 530.15 90.1855 529.924L90.8902 530.454C94.8458 536.061 104.595 528.538 108.871 526.188C111.26 521.602 109.374 519.638 114.852 517.979C119.095 516.694 117.184 508.591 116.223 505.636C116.063 505.143 115.131 505.117 114.648 505.024L114.41 504.574C119.739 495.89 117.025 495.626 116.101 486.334C115.842 483.736 116.496 478.403 116.775 475.549C118.142 461.53 124.37 448.479 127.105 434.736C128.735 426.521 128.513 416.908 127.772 408.599C127.652 407.244 127.198 399.516 126.797 398.617C126.154 398.919 125.818 399.815 125.399 400.547L125.178 400.578C125.699 395.341 130.805 386.711 131.082 380.764C131.636 368.902 133.661 357.554 135.484 345.887C136.812 337.387 137.27 328.541 138.995 320.035C140.048 313.459 139.675 305.858 141.05 299.361C138.973 298.502 136.316 296.966 134.286 295.867C139.149 296.952 142.941 297.758 148.005 297.183C149.877 296.972 152.367 296.318 154.082 296.403L154.281 296.631C153.923 296.879 149.281 299.006 148.71 299.254C151.891 326.597 156.857 354.365 160.261 381.719C160.752 385.657 164.564 392.881 165.776 396.924L165.841 397.147C165.099 397 164.983 396.964 164.26 397.169C163.933 406.565 162.26 416.975 163.774 426.569C167.078 447.519 178.727 467.609 176.936 489.377C176.756 491.566 175.025 494.146 175.202 496.482C175.225 499.274 178.814 502.018 178.594 504.368C176.639 506.024 176.323 510.177 175.827 512.755C175.585 513.902 175.04 516.5 174.214 517.288C174.162 517.167 174.111 517.043 174.063 516.922C172.318 512.361 174.51 508.183 174.583 503.593C174.615 501.576 173.397 499.705 173.018 497.75C172.474 494.947 173.664 491.461 174.095 488.655C174.524 485.86 174.345 482.936 174.149 480.127C173.634 472.737 171.914 464.975 169.707 457.889C167.184 449.787 164.141 442.135 162.584 433.739C161.492 427.853 160.303 421.562 160.639 415.57C160.986 409.374 162.589 402.745 161.963 396.578C161.646 393.459 160.29 390.608 159.369 387.638C158.367 384.409 157.65 381.09 157.054 377.763C155.889 371.252 155.408 364.617 154.431 358.075C153.906 354.559 153.105 351.088 152.545 347.575C151.725 342.436 151.183 337.263 150.433 332.116C149.932 328.682 149.22 325.281 148.715 321.847C148.214 318.452 147.046 302.077 145.837 300.713C145.347 300.161 144.988 300.161 144.309 300.116C143.107 301.192 143.058 307.379 142.77 309.301C141.491 317.823 140.381 326.349 139.584 334.933C138.929 341.982 137.447 348.817 136.541 355.835C135.401 364.676 134.734 373.565 133.323 382.37C132.765 386.666 130.784 390.619 129.801 394.752C128.415 400.578 130.092 407.633 130.669 413.496C131.247 419.367 131.212 424.875 130.181 430.668C129.43 434.838 128.931 439.236 127.791 443.318C125.509 451.491 122.148 459.47 120.652 467.824C119.821 472.458 119.148 477.056 118.539 481.725C117.848 487.024 120.047 491.352 120.401 496.516C120.558 498.891 118.567 501.5 118.433 503.841C119.285 507.591 120.899 511.121 120.131 515.17C119.274 519.692 116.008 519.249 113.46 522.098C112.831 522.799 112.52 525.045 112.057 525.822C109.969 529.333 106.408 530.564 102.987 532.33C101.752 532.939 100.721 534.269 99.3994 534.691C96.2395 535.815 92.9698 534.635 89.8291 534.497C83.1511 534.21 78.2438 532.381 72.1787 529.643L71.2219 527.152C73.4398 517.494 84.0883 515.975 88.8976 507.805C90.6899 505.557 90.0091 501.39 90.9198 499.088C93.107 493.555 94.9455 491.168 95.0399 484.948C95.1959 474.681 94.7849 464.31 93.6706 454.08C92.3124 445.755 91.5952 437.607 91.0665 429.254C90.324 417.528 92.3794 408.954 94.8804 397.747C95.8108 393.577 94.3875 385.736 95.0782 381.507C96.1474 374.957 96.2778 370.241 95.1413 363.662C94.5954 355.016 92.7231 346.451 91.9293 337.88C89.6951 312.738 91.3874 287.373 95.1314 262.449C96.6336 252.448 99.4794 241.806 101.214 231.809C104.106 215.149 101.473 198.302 97.5944 182.247C96.4209 189.435 94.7872 196.508 93.4856 203.681C93.0087 206.309 91.2803 209.206 90.906 211.932C90.3863 215.716 90.5277 219.611 90.0407 223.409C88.3424 242.779 75.7433 259.661 73.9789 278.863C73.8741 280.005 77.1489 284.871 77.5055 286.607C78.2762 290.455 77.7255 294.411 77.8097 298.321C77.9001 302.522 78.7505 306.503 77.8272 310.628C74.9927 311.388 74.5868 311.284 71.7951 310.718C67.8961 305.32 68.4231 304.604 67.1719 298.197L64.8171 301.257C64.3416 308.633 66.7446 309.659 70.4906 315.614C71.1548 317.333 74.2905 323.664 73.5046 325.244C69.3391 333.634 55.1615 320.043 53.6579 315.265C51.3947 308.067 47.365 302.125 49.2886 294.546C50.5617 290.348 51.9555 285.19 53.7602 281.195C58.229 271.306 56.8175 260.068 57.3096 249.374C56.9902 240.466 58.9335 231.627 59.5844 222.925C60.2804 213.622 65.8314 207.447 66.7094 199.112L70.7399 162.384C71.6585 153.332 70.3563 147.24 73.9065 137.922C76.4413 130.081 86.3896 122.56 94.4309 120.706C105.141 118.237 113.645 114.663 123.869 110.023C127.192 104.041 128.242 94.3183 124.572 88.3686C123.145 86.0561 125.744 83.8464 120.838 82.8764C115.161 77.3062 112.142 69.2529 118.18 62.6822ZM120.8 64.5744C119.368 64.9877 118.438 65.1821 117.69 66.5652C116.572 68.6342 116.876 71.209 117.577 73.3576C118.358 75.7535 119.758 78.6213 121.599 80.3582C122.54 80.7625 124.716 80.4298 125.077 81.3361C125.622 82.7093 125.705 84.1752 126.15 85.5763C128.18 91.9678 131.273 96.3156 137.519 99.0752C139.39 99.9159 141.404 100.392 143.453 100.479C148.117 100.537 151.806 98.6374 155.102 95.4366C159.854 90.8225 158.601 86.4925 161.264 81.5204C161.995 80.1571 163.887 80.8515 164.99 80.1016C167.212 78.5906 169.301 72.1915 169.353 69.6324C169.38 68.257 169.061 66.6621 168.081 65.6343C167.486 65.0091 166.631 64.6274 165.869 64.2459C165.923 55.261 165.955 45.7176 159.215 38.8415C155.254 34.8003 149.748 33.0975 144.17 33.0668C143.816 33.0653 143.463 33.0704 143.11 33.082C136.497 33.5561 130.742 35.1874 126.163 40.3624C119.986 47.3455 120.479 55.7754 120.8 64.5744Z" fill="currentColor"/>
<path d="M192.459 368.731L193.011 369.17C192.983 370.475 192.811 375.523 193.53 376.504C193.789 375.611 194.08 373.81 194.556 373.306C194.833 377.05 195.583 380.609 195.868 384.398C196.096 387.438 195.486 393.667 196.04 396.242C197.8 404.41 200.189 408.74 200.543 417.435C201.067 430.319 199.44 442.171 198.42 454.85C197.913 461.38 197.678 467.931 197.717 474.481C197.709 478.248 197.473 483.925 198.173 487.557C199.156 492.662 203.735 498.618 203.61 504.002C203.405 512.871 216.753 516.116 219.627 522.309C217.858 522.196 218.946 521.686 217.746 521.805C217.445 522.298 217.302 522.461 217.188 523.019C212.475 518.055 207.917 516.449 203.557 511.166C200.221 508.447 201.425 501.92 200.026 499.206C195.415 490.264 195.249 486.931 195.018 476.769C194.865 470.926 194.976 465.082 195.349 459.25C196.553 442.78 200.513 419.849 195.191 403.745C192.578 395.839 193.344 392.461 193.282 384.252C193.239 378.755 191.859 374.543 192.459 368.731Z" fill="currentColor"/>
<path d="M217.188 523.019C217.302 522.461 217.445 522.298 217.746 521.805C218.946 521.686 217.858 522.196 219.627 522.309C220.877 523.566 221.105 525.107 221.523 526.786C220.95 528.541 220.711 529.795 218.948 530.648C213.535 533.26 207.902 534.038 202.102 534.59C195.513 535.215 196.017 536.111 190.746 532.218C187.986 530.178 181.91 529.834 181.277 524.631C182.5 523.89 182.69 523.34 182.884 522.024C183.414 524.245 185.07 526.484 187.102 527.6C190.589 529.513 198.249 534.852 201.893 531.068C202.821 529.228 201.179 527.456 199.987 526.189L200.685 525.862C202.59 527.817 202.927 528.797 203.766 531.322C205.279 531.344 208.275 531.609 209.379 530.57L209.582 530.141L210.095 530.13L210.698 530.544C212.48 530.403 214.194 529.981 215.641 528.893L216.133 528.82C219.91 527.161 220.533 525.927 217.188 523.019Z" fill="currentColor"/>
<path d="M174.214 517.288C175.04 516.499 175.585 513.902 175.827 512.755C176.252 519.861 182.168 516.573 182.884 522.024C182.69 523.34 182.5 523.889 181.277 524.63C180.608 518.849 175.984 521.123 174.214 517.288Z" fill="currentColor"/>
<path d="M220.538 320.134L220.8 320.043C224.737 318.654 230.008 312.324 231.179 308.309C231.381 307.619 232.27 304.813 232.607 304.508C232.95 305.007 233.096 305.342 232.903 306.097C231.2 312.769 227.62 316.378 222.397 320.624C221.715 321.176 221.052 321.08 220.246 320.903L220.538 320.134Z" fill="currentColor"/>
<path d="M77.1498 528.499C77.7261 527.208 79.8113 523.036 81.5065 523.656C80.4724 524.954 78.2669 527.592 77.7033 528.972L77.6438 528.485L77.1498 528.499Z" fill="currentColor"/>
<path d="M90.1855 529.924C90.93 527.098 92.1786 526.698 94.6047 524.957L94.7326 525.129C92.6316 527.375 91.8919 527.58 90.9384 530.313L90.8902 530.454L90.1855 529.924Z" fill="currentColor"/>
<path d="M215.641 528.893C214.927 526.738 212.978 525.707 211.705 522.456C213.492 524.273 215.963 526.341 216.133 528.82L215.641 528.893Z" fill="currentColor"/>
<path d="M209.582 530.141C208.945 527.535 208.058 527.476 207.436 524.912C209.254 527.541 210.303 527.352 210.095 530.13L209.582 530.141Z" fill="currentColor"/>
<path d="M164.26 397.169C164.983 396.964 165.099 397 165.841 397.147C166.261 398.254 166.758 399.37 166.863 400.544C166.061 400.167 165.203 398.026 164.26 397.169Z" fill="currentColor"/>
<path d="M84.9381 526.369L84.4232 528.037C84.0688 528.764 83.7736 529.383 83.4646 530.133L83.0063 530.074L83.0201 529.803C83.1297 527.921 83.5218 527.617 84.9381 526.369Z" fill="currentColor"/>
<path d="M84.9381 526.369C85.5784 525.76 86.0305 525.101 86.7631 524.98C86.3361 526.29 85.4201 527.115 84.4232 528.037L84.9381 526.369Z" fill="currentColor"/>
<path d="M199.987 526.188C199.431 525.862 199.167 525.636 198.662 525.228L198.645 524.814C199.789 524.915 199.617 525.047 200.685 525.862L199.987 526.188Z" fill="currentColor"/>
</svg>
